<?xml version="1.0" encoding="utf-8"?>
<!-- Generator: Adobe Illustrator 23.0.1, SVG Export Plug-In . SVG Version: 6.00 Build 0)  -->
<svg version="1.1" id="Lag_1" xmlns="http://www.w3.org/2000/svg" xmlns:xlink="http://www.w3.org/1999/xlink" x="0px" y="0px"
	 viewBox="0 0 1242 8000" style="enable-background:new 0 0 1242 8000;" xml:space="preserve">
<style type="text/css">
	.st0{fill:#525252;stroke:#000000;stroke-miterlimit:10;}
</style>
<path class="st0" d="M-199.5,447.5c4.9-140.4,326.4-260.4,557-284c43.3-4.4,75.4-4.7,122-5c198.5-1.4,361.6-2.6,505,84
	c106.8,64.5,85.6,107,195,158c138.4,64.5,217.7,17.6,263,73c67.9,83-3.8,318.2-164,416c-117.9,72-199.4-32.3-531-89
	c-290.4-49.7-336.4,3.9-542-63C168.9,725.6-204.9,600.8-199.5,447.5z"/>
<path class="st0" d="M-257.5,2794.5c-9.9-291.1,209.6-544.2,452-621c176.9-56.1,333-7.9,453,31c374.3,121.2,388.5,339.9,847,611
	c275.1,162.7,433.3,180.5,432,258c-2.5,151.9-447,375.7-842,295c-242.2-49.5-254.1-170.6-500-195c-309-30.7-433.7,146.3-616,58
	C-197,3151.3-252.9,2928.5-257.5,2794.5z"/>
<path class="st0" d="M-357.5,4955.5c98.8-450.5,467.8-665.3,663-779c70.3-40.9,136.4-69.6,205-52c116.5,30,134.5,166.4,263,342
	c54.9,75.1,169.7,232,327,295c287.8,115.3,517.4-163.9,652-64c168.6,125.2,51.1,744.2-242,853c-184.8,68.6-282.9-123.6-547-68
	c-273.6,57.6-353.3,302.9-537,263c-138.3-30-152.2-181.9-284-190c-157.4-9.7-222.6,201.6-327,185
	C-322.5,5718.5-435.8,5312.6-357.5,4955.5z"/>
<path class="st0" d="M-381.5,6824.5c32.5-290.9,475-560.1,709-464c208.4,85.6,177.8,430.8,373,473c172.6,37.4,263.5-218,476-218
	c271.2,0,596.8,416.1,515,691c-92.5,310.8-683.3,366.2-1046,309C160.3,7539-421.4,7181.7-381.5,6824.5z"/>
<path class="st0" d="M-1470.5,7140.5"/>
</svg>
